# xmcd
#
# Track frame offsets: 
#        150
#        38557
#        64377
#        84840
#        113507
#        137535
#        169970
#        199262
#        234925
#        263747
#
# Disc length: 3858 seconds
#
# Revision: 2
# Processed by: cddbd v1.5.2PL0 Copyright (c) Steve Scherf et al.
# Submitted via: ExactAudioCopyFreeDBPlugin 1.0
#
DISCID=7b0f100a
DTITLE=Remixed Records - Remixed Records 54
DYEAR=1992
DGENRE=Remix
TTITLE0=Dr Alban - It's My Life
TTITLE1=2nd II None - If You Want It
TTITLE2=En Vogue - My Lovin
TTITLE3=Eve Gallagher - Love Come Down
TTITLE4=Joy Salinas - Stay Tonight
TTITLE5=Frankie Knuckles - Work Out
TTITLE6=Paola Toro - I'm So Exited
TTITLE7=Kayo - Thing Called Love
TTITLE8=Nefateri - You Can't Change My Mind
TTITLE9=OPUS III - It's A Fine Day
EXTD=
EXTT0=
EXTT1=
EXTT2=
EXTT3=
EXTT4=
EXTT5=
EXTT6=
EXTT7=
EXTT8=
EXTT9=
PLAYORDER=
